<svg width="58" height="57" viewBox="0 0 58 57" fill="none" xmlns="http://www.w3.org/2000/svg">
<path d="M56.3599 52.5401L46.3599 43.2801C50.8192 38.2442 53.1533 31.676 52.8718 24.9553C52.5903 18.2347 49.7151 11.8847 44.8502 7.23932C39.9853 2.59397 33.5094 0.0148171 26.7829 0.043697C20.0564 0.0725768 13.6029 2.70724 8.77812 7.3942C3.95331 12.0812 1.13274 18.4556 0.90894 25.1784C0.685143 31.9012 3.07554 38.4492 7.57796 43.4466C12.0804 48.4441 18.3444 51.5021 25.0541 51.9782C31.7637 52.4544 38.3968 50.3116 43.5599 46.0001V46.1001L53.5599 55.4201C53.7472 55.6203 53.9737 55.7799 54.2253 55.8888C54.4769 55.9978 54.7483 56.0539 55.0225 56.0536C55.2967 56.0533 55.5679 55.9966 55.8192 55.887C56.0706 55.7775 56.2967 55.6174 56.4836 55.4168C56.6705 55.2161 56.8142 54.9792 56.9056 54.7207C56.9971 54.4622 57.0344 54.1877 57.0153 53.9142C56.9962 53.6407 56.9211 53.374 56.7945 53.1307C56.668 52.8875 56.4928 52.6728 56.2799 52.5001L56.3599 52.5401ZM26.9999 48.0001C22.6487 48.0001 18.3952 46.7098 14.7773 44.2924C11.1594 41.875 8.33963 38.4391 6.6745 34.4191C5.00938 30.3992 4.5737 25.9757 5.42258 21.7081C6.27145 17.4405 8.36675 13.5205 11.4435 10.4438C14.5203 7.367 18.4403 5.2717 22.7079 4.42282C26.9755 3.57395 31.3989 4.00962 35.4189 5.67475C39.4389 7.33988 42.8748 10.1597 45.2922 13.7776C47.7096 17.3954 48.9999 21.6489 48.9999 26.0001C48.9999 31.8349 46.682 37.4307 42.5562 41.5565C38.4304 45.6823 32.8346 48.0001 26.9999 48.0001ZM41.9999 26.0001C41.9999 26.5305 41.7891 27.0392 41.4141 27.4143C41.039 27.7894 40.5303 28.0001 39.9999 28.0001H28.9999V39.0001C28.9999 39.5305 28.7891 40.0392 28.4141 40.4143C28.039 40.7894 27.5303 41.0001 26.9999 41.0001C26.4694 41.0001 25.9607 40.7894 25.5856 40.4143C25.2106 40.0392 24.9999 39.5305 24.9999 39.0001V28.0001H13.9999C13.4694 28.0001 12.9607 27.7894 12.5856 27.4143C12.2106 27.0392 11.9999 26.5305 11.9999 26.0001C11.9999 25.4697 12.2106 24.961 12.5856 24.5859C12.9607 24.2108 13.4694 24.0001 13.9999 24.0001H24.9999V13.0001C24.9999 12.4697 25.2106 11.961 25.5856 11.5859C25.9607 11.2108 26.4694 11.0001 26.9999 11.0001C27.5303 11.0001 28.039 11.2108 28.4141 11.5859C28.7891 11.961 28.9999 12.4697 28.9999 13.0001V24.0001H39.9999C40.5303 24.0001 41.039 24.2108 41.4141 24.5859C41.7891 24.961 41.9999 25.4697 41.9999 26.0001Z" fill="white"/>
</svg>
