<svg width="12" height="12" viewBox="0 0 12 12" fill="none" xmlns="http://www.w3.org/2000/svg">
<path fill-rule="evenodd" clip-rule="evenodd" d="M5.89001 7.01902L10.4169 11.546C10.7277 11.8567 11.2359 11.8569 11.5464 11.5464C11.8569 11.236 11.8567 10.7277 11.546 10.4169L7.01902 5.89001L11.5461 1.36296C11.8568 1.05222 11.857 0.543947 11.5465 0.233467C11.2361 -0.0770133 10.7278 -0.0768018 10.4171 0.233937L5.89001 4.76099L1.36221 0.233192C1.05147 -0.0775465 0.543202 -0.077758 0.232722 0.232722C-0.077758 0.543202 -0.0775466 1.05147 0.233192 1.36221L4.76099 5.89001L0.233304 10.4177C-0.0774341 10.7284 -0.0776456 11.2367 0.232835 11.5472C0.543315 11.8577 1.05158 11.8574 1.36232 11.5467L5.89001 7.01902Z" fill="#FF0000"/>
</svg>
