<svg width="30" height="30" viewBox="0 0 30 30" fill="none" xmlns="http://www.w3.org/2000/svg">
<g clip-path="url(#clip0_576_5805)">
<path d="M24.0013 8.7542H23.1692V5.49521C24.1829 5.04439 24.8802 4.02311 24.8802 2.87033C24.8802 1.28766 23.5926 0 22.0099 0H9.70107C8.11834 0 6.83074 1.28766 6.83074 2.87033C6.83074 4.02316 7.52807 5.04434 8.54174 5.49521V8.7542H7.70965C4.87342 8.7542 2.56594 11.0617 2.56594 13.898V14.1263H1.73437C1.24898 14.1263 0.855469 14.5198 0.855469 15.0052C0.855469 15.4905 1.24898 15.8841 1.73437 15.8841H2.56588V25.649C2.56588 26.1344 2.95939 26.5279 3.44478 26.5279H5.00807V29.1211C5.00807 29.6065 5.40158 30 5.88697 30H9.41766C9.90305 30 10.2966 29.6065 10.2966 29.1211V26.5279H21.4143V29.1211C21.4143 29.6065 21.8078 30 22.2932 30H25.8239C26.3093 30 26.7028 29.6065 26.7028 29.1211V26.5279H28.2661C28.7515 26.5279 29.145 26.1344 29.145 25.649V13.898C29.145 11.0617 26.8375 8.7542 24.0013 8.7542ZM9.70107 1.75781H22.0099C22.6233 1.75781 23.1224 2.25691 23.1224 2.87033C23.1224 3.42129 22.7119 3.89467 22.1675 3.97143C21.7339 4.0326 21.4114 4.40379 21.4114 4.84178V12.2699H10.2995V4.84178C10.2995 4.40379 9.97699 4.0326 9.54328 3.97143C8.99894 3.89467 8.5885 3.42129 8.5885 2.87033C8.5885 2.25691 9.0876 1.75781 9.70107 1.75781ZM8.53875 28.2422H6.76588V26.5279H8.53875V28.2422ZM24.945 28.2422H23.1721V26.5279H24.945V28.2422ZM27.3872 24.7701H4.32369V13.898C4.32369 12.0309 5.84262 10.512 7.70959 10.512H8.54168V12.2698H7.70959C7.2242 12.2698 6.83068 12.6633 6.83068 13.1487C6.83068 13.6341 7.2242 14.0276 7.70959 14.0276H24.0013C24.4867 14.0276 24.8802 13.6341 24.8802 13.1487C24.8802 12.6633 24.4867 12.2698 24.0013 12.2698H23.1692V10.512H24.0013C25.8683 10.512 27.3872 12.0309 27.3872 13.898V24.7701Z" fill="#686777"/>
<path d="M22.9443 17.7539C21.4904 17.7539 20.3076 18.9367 20.3076 20.3906C20.3076 21.8446 21.4904 23.0273 22.9443 23.0273C24.3982 23.0273 25.5811 21.8446 25.5811 20.3906C25.5811 18.9367 24.3982 17.7539 22.9443 17.7539ZM22.9443 21.2695C22.4597 21.2695 22.0654 20.8753 22.0654 20.3906C22.0654 19.9059 22.4597 19.5117 22.9443 19.5117C23.429 19.5117 23.8232 19.9059 23.8232 20.3906C23.8232 20.8753 23.429 21.2695 22.9443 21.2695Z" fill="#686777"/>
<path d="M17.6423 4.92347C17.9334 5.16065 18.3515 5.1869 18.6695 4.98663C18.9861 4.7873 19.1434 4.39296 19.0519 4.03056C18.9609 3.67056 18.6455 3.40144 18.2756 3.36857C17.9009 3.33529 17.541 3.55413 17.3924 3.89814C17.2392 4.2528 17.3434 4.67913 17.6423 4.92347Z" fill="#686777"/>
<path d="M14.9938 9.68951C15.066 10.03 15.3292 10.3019 15.6703 10.3765C16.0248 10.4541 16.4052 10.2952 16.5979 9.9874C16.7955 9.67211 16.7736 9.26031 16.542 8.96846C16.3085 8.67414 15.9003 8.56516 15.5494 8.69418C15.1465 8.84242 14.9151 9.27133 14.9938 9.68951Z" fill="#686777"/>
<path d="M12.0641 6.1739C12.1405 6.53426 12.4309 6.81568 12.7968 6.87105C13.1595 6.9259 13.5287 6.73945 13.7006 6.41584C13.8727 6.09205 13.8249 5.68388 13.5774 5.41154C13.3305 5.13984 12.9288 5.04972 12.5897 5.19005C12.204 5.34972 11.9875 5.76656 12.0641 6.1739Z" fill="#686777"/>
</g>
<defs>
<clipPath id="clip0_576_5805">
<rect width="30" height="30" fill="white"/>
</clipPath>
</defs>
</svg>
