<svg width="30" height="30" viewBox="0 0 30 30" fill="none" xmlns="http://www.w3.org/2000/svg">
<path d="M25.4355 14.2912H25.0866C23.783 14.2912 22.5132 13.832 21.5111 12.998L14.6081 7.25255C14.0868 6.81872 13.4263 6.57983 12.7481 6.57983C11.1449 6.57983 9.84064 7.88413 9.84064 9.48731V10.1662C9.84064 11.4888 8.76463 12.5648 7.44199 12.5648C6.51363 12.5648 5.66033 12.0211 5.26805 11.1797L5.07697 10.7699C4.64139 9.83565 3.69393 9.23202 2.6632 9.23202C1.19473 9.23202 0 10.4267 0 11.8952V18.8557C0 21.3725 2.04762 23.4201 4.56445 23.4201H25.4355C27.9524 23.4201 30 21.3725 30 18.8557C30 16.3389 27.9524 14.2912 25.4355 14.2912ZM25.4355 21.6623H4.56445C3.51979 21.6623 2.60725 21.0882 2.12402 20.2393H27.876C27.3928 21.0882 26.4802 21.6623 25.4355 21.6623ZM1.75781 18.4816V11.8952C1.75781 11.3959 2.16398 10.9898 2.6632 10.9898C3.01359 10.9898 3.33574 11.1951 3.48381 11.5127L3.67488 11.9225C4.35463 13.3805 5.8333 14.3226 7.44205 14.3226C9.73395 14.3226 11.5985 12.4581 11.5985 10.1662V9.48731C11.5985 8.85339 12.1143 8.33765 12.7482 8.33765C13.0163 8.33765 13.2775 8.4321 13.4837 8.60366L15.1771 10.0131L13.2476 11.9426L14.4905 13.1856L16.5338 11.1424L17.2973 11.7779L15.4549 13.6203L16.6979 14.8632L18.6541 12.9071L19.4176 13.5426L17.6623 15.2979L18.9052 16.5409L20.787 14.6591C22.0341 15.5586 23.5423 16.0492 25.0867 16.0492H25.4357C26.8563 16.0492 28.033 17.1104 28.2166 18.4816H1.75781Z" fill="#686777"/>
</svg>
