<svg width="173" height="37" viewBox="0 0 173 37" fill="none" xmlns="http://www.w3.org/2000/svg">
<path d="M4.82434 28C4.35575 28 3.96171 27.8403 3.64222 27.5208C3.34402 27.2013 3.19493 26.8072 3.19493 26.3386V4.70898C3.19493 4.24039 3.35467 3.84634 3.67417 3.52685C3.99366 3.20736 4.37705 3.04761 4.82434 3.04761C5.29293 3.04761 5.68697 3.20736 6.00646 3.52685C6.32596 3.84634 6.4857 4.24039 6.4857 4.70898V24.6773H18.0513C18.5199 24.6773 18.914 24.837 19.2335 25.1565C19.553 25.476 19.7127 25.87 19.7127 26.3386C19.7127 26.8072 19.553 27.2013 19.2335 27.5208C18.914 27.8403 18.5199 28 18.0513 28H4.82434ZM40.3292 28.3195C37.8585 28.3195 35.654 27.7764 33.7157 26.6901C31.7988 25.6038 30.3078 24.0915 29.2428 22.1533C28.1778 20.1937 27.6454 17.9786 27.6454 15.5078C27.6454 13.0371 28.1778 10.8326 29.2428 8.89433C30.3078 6.95607 31.7988 5.44381 33.7157 4.35753C35.654 3.27126 37.8585 2.72812 40.3292 2.72812C42.7787 2.72812 44.9619 3.27126 46.8788 4.35753C48.8171 5.44381 50.3187 6.95607 51.3837 8.89433C52.47 10.8326 53.0131 13.0371 53.0131 15.5078C53.0131 17.9786 52.47 20.1937 51.3837 22.1533C50.3187 24.0915 48.8277 25.6038 46.9108 26.6901C44.9938 27.7764 42.8 28.3195 40.3292 28.3195ZM40.3292 25.3163C42.1397 25.3163 43.7691 24.8903 45.2175 24.0383C46.6658 23.165 47.7947 21.9829 48.6041 20.4919C49.4135 19.001 49.8182 17.3396 49.8182 15.5078C49.8182 13.6761 49.4135 12.0147 48.6041 10.5237C47.7947 9.03278 46.6658 7.8613 45.2175 7.00932C43.7904 6.15734 42.161 5.73135 40.3292 5.73135C38.4975 5.73135 36.8574 6.15734 35.409 7.00932C33.982 7.8613 32.8637 9.03278 32.0544 10.5237C31.245 12.0147 30.8403 13.6761 30.8403 15.5078C30.8403 17.3396 31.245 19.001 32.0544 20.4919C32.8637 21.9829 33.9926 23.165 35.441 24.0383C36.8894 24.8903 38.5188 25.3163 40.3292 25.3163ZM82.8335 15.0605C83.3021 15.0605 83.6855 15.2203 83.9837 15.5398C84.3032 15.838 84.4629 16.232 84.4629 16.7219V24.3578C84.4629 24.869 84.2925 25.263 83.9517 25.5399C81.7153 27.393 79.1061 28.3195 76.1241 28.3195C73.8451 28.3195 71.7577 27.7551 69.8621 26.6262C67.9877 25.4973 66.5074 23.9531 65.4211 21.9935C64.3349 20.034 63.7917 17.8721 63.7917 15.5078C63.7917 13.1649 64.3349 11.0243 65.4211 9.08603C66.5074 7.12647 67.9877 5.58226 69.8621 4.45338C71.7577 3.30321 73.8451 2.72812 76.1241 2.72812C77.7429 2.72812 79.138 2.94112 80.3095 3.36711C81.5023 3.7931 82.7057 4.49598 83.9198 5.47576C84.1754 5.66745 84.3458 5.8698 84.431 6.08279C84.5162 6.27449 84.5588 6.50878 84.5588 6.78568C84.5588 7.21167 84.399 7.56311 84.0795 7.84C83.7813 8.1169 83.4192 8.25535 82.9932 8.25535C82.6099 8.25535 82.2478 8.1169 81.907 7.84C81.0337 7.09452 80.1817 6.56203 79.351 6.24254C78.5203 5.90175 77.4447 5.73135 76.1241 5.73135C74.4628 5.73135 72.9292 6.16799 71.5235 7.04127C70.139 7.91455 69.0314 9.10733 68.2007 10.6196C67.3913 12.1106 66.9867 13.74 66.9867 15.5078C66.9867 17.297 67.3913 18.9371 68.2007 20.428C69.0314 21.919 70.139 23.1011 71.5235 23.9744C72.9292 24.8477 74.4628 25.2843 76.1241 25.2843C77.9133 25.2843 79.6279 24.7518 81.268 23.6868V17.9999H76.859C76.3691 17.9999 75.9644 17.8614 75.6449 17.5845C75.3467 17.3076 75.1976 16.9562 75.1976 16.5302C75.1976 16.1042 75.3467 15.7528 75.6449 15.4759C75.9644 15.199 76.3691 15.0605 76.859 15.0605H82.8335ZM108.659 28.3195C106.189 28.3195 103.984 27.7764 102.046 26.6901C100.129 25.6038 98.6381 24.0915 97.5731 22.1533C96.5081 20.1937 95.9756 17.9786 95.9756 15.5078C95.9756 13.0371 96.5081 10.8326 97.5731 8.89433C98.6381 6.95607 100.129 5.44381 102.046 4.35753C103.984 3.27126 106.189 2.72812 108.659 2.72812C111.109 2.72812 113.292 3.27126 115.209 4.35753C117.147 5.44381 118.649 6.95607 119.714 8.89433C120.8 10.8326 121.343 13.0371 121.343 15.5078C121.343 17.9786 120.8 20.1937 119.714 22.1533C118.649 24.0915 117.158 25.6038 115.241 26.6901C113.324 27.7764 111.13 28.3195 108.659 28.3195ZM108.659 25.3163C110.47 25.3163 112.099 24.8903 113.548 24.0383C114.996 23.165 116.125 21.9829 116.934 20.4919C117.744 19.001 118.148 17.3396 118.148 15.5078C118.148 13.6761 117.744 12.0147 116.934 10.5237C116.125 9.03278 114.996 7.8613 113.548 7.00932C112.121 6.15734 110.491 5.73135 108.659 5.73135C106.828 5.73135 105.188 6.15734 103.739 7.00932C102.312 7.8613 101.194 9.03278 100.385 10.5237C99.5753 12.0147 99.1706 13.6761 99.1706 15.5078C99.1706 17.3396 99.5753 19.001 100.385 20.4919C101.194 21.9829 102.323 23.165 103.771 24.0383C105.22 24.8903 106.849 25.3163 108.659 25.3163Z" fill="#FF0000"/>
<path d="M3.64222 27.5208L2.18011 28.8854L2.20363 28.9106L2.228 28.935L3.64222 27.5208ZM3.67417 3.52685L2.25995 2.11264L2.25995 2.11264L3.67417 3.52685ZM6.4857 24.6773H4.4857V26.6773H6.4857V24.6773ZM19.2335 25.1565L20.6477 23.7423L20.6477 23.7423L19.2335 25.1565ZM19.2335 27.5208L20.6477 28.935L20.6477 28.935L19.2335 27.5208ZM4.82434 26C4.82127 26 4.86384 26.0004 4.92878 26.0267C4.99517 26.0536 5.0389 26.089 5.05643 26.1065L2.228 28.935C2.93782 29.6448 3.84728 30 4.82434 30V26ZM5.10433 26.1561C5.12607 26.1794 5.15632 26.2223 5.17732 26.2778C5.19742 26.3309 5.19493 26.3582 5.19493 26.3386H1.19493C1.19493 27.2738 1.50987 28.1673 2.18011 28.8854L5.10433 26.1561ZM5.19493 26.3386V4.70898H1.19493V26.3386H5.19493ZM5.19493 4.70898C5.19493 4.7059 5.19454 4.74847 5.16822 4.81341C5.1413 4.8798 5.10591 4.92354 5.08838 4.94107L2.25995 2.11264C1.55014 2.82246 1.19493 3.73192 1.19493 4.70898H5.19493ZM5.08838 4.94107C5.07974 4.9497 5.04045 4.98446 4.97056 5.01358C4.90027 5.04287 4.84423 5.04761 4.82434 5.04761V1.04761C3.8406 1.04761 2.95024 1.42235 2.25995 2.11264L5.08838 4.94107ZM4.82434 5.04761C4.82742 5.04761 4.78484 5.04723 4.7199 5.0209C4.65352 4.99399 4.60978 4.95859 4.59225 4.94107L7.42068 2.11264C6.71086 1.40282 5.8014 1.04761 4.82434 1.04761V5.04761ZM4.59225 4.94107C4.57472 4.92354 4.53933 4.8798 4.51242 4.81341C4.48609 4.74847 4.4857 4.7059 4.4857 4.70898H8.4857C8.4857 3.73192 8.1305 2.82246 7.42068 2.11264L4.59225 4.94107ZM4.4857 4.70898V24.6773H8.4857V4.70898H4.4857ZM6.4857 26.6773H18.0513V22.6773H6.4857V26.6773ZM18.0513 26.6773C18.0544 26.6773 18.0118 26.6769 17.9469 26.6506C17.8805 26.6236 17.8368 26.5883 17.8193 26.5707L20.6477 23.7423C19.9379 23.0325 19.0284 22.6773 18.0513 22.6773V26.6773ZM17.8193 26.5707C17.8017 26.5532 17.7663 26.5095 17.7394 26.4431C17.7131 26.3781 17.7127 26.3356 17.7127 26.3386H21.7127C21.7127 25.3616 21.3575 24.4521 20.6477 23.7423L17.8193 26.5707ZM17.7127 26.3386C17.7127 26.3417 17.7131 26.2991 17.7394 26.2342C17.7663 26.1678 17.8017 26.1241 17.8193 26.1065L20.6477 28.935C21.3575 28.2252 21.7127 27.3157 21.7127 26.3386H17.7127ZM17.8193 26.1065C17.8368 26.089 17.8805 26.0536 17.9469 26.0267C18.0118 26.0004 18.0544 26 18.0513 26V30C19.0284 30 19.9379 29.6448 20.6477 28.935L17.8193 26.1065ZM18.0513 26H4.82434V30H18.0513V26ZM33.7157 26.6901L32.7297 28.4301L32.7379 28.4348L33.7157 26.6901ZM29.2428 22.1533L27.4856 23.1083L27.49 23.1164L29.2428 22.1533ZM29.2428 8.89433L27.49 7.93123V7.93123L29.2428 8.89433ZM33.7157 4.35753L32.7379 2.61283L32.7297 2.61749L33.7157 4.35753ZM46.8788 4.35753L45.8928 6.0976L45.901 6.10222L46.8788 4.35753ZM51.3837 8.89433L49.6308 9.85743L49.6349 9.86479L49.639 9.87212L51.3837 8.89433ZM51.3837 22.1533L49.6345 21.1836L49.6308 21.1902L51.3837 22.1533ZM46.9108 26.6901L47.8968 28.4301L46.9108 26.6901ZM45.2175 24.0383L46.2315 25.7622L46.2409 25.7567L46.2502 25.751L45.2175 24.0383ZM48.6041 20.4919L46.8464 19.5377L48.6041 20.4919ZM48.6041 10.5237L50.3618 9.56956L48.6041 10.5237ZM45.2175 7.00932L44.1922 8.7266L44.2034 8.73319L45.2175 7.00932ZM35.409 7.00932L34.395 5.28542L34.3838 5.29208L35.409 7.00932ZM32.0544 10.5237L30.2967 9.56956V9.56956L32.0544 10.5237ZM32.0544 20.4919L33.8121 19.5377L32.0544 20.4919ZM35.441 24.0383L34.4083 25.751L34.4176 25.7567L34.4269 25.7622L35.441 24.0383ZM40.3292 26.3195C38.1617 26.3195 36.3007 25.8461 34.6935 24.9454L32.7379 28.4348C35.0073 29.7066 37.5552 30.3195 40.3292 30.3195V26.3195ZM34.7017 24.95C33.1088 24.0473 31.8827 22.8046 30.9957 21.1902L27.49 23.1164C28.7329 25.3784 30.4888 27.1603 32.7297 28.4301L34.7017 24.95ZM31.0001 21.1983C30.111 19.5624 29.6454 17.6817 29.6454 15.5078H25.6454C25.6454 18.2755 26.2447 20.825 27.4856 23.1083L31.0001 21.1983ZM29.6454 15.5078C29.6454 13.3336 30.1111 11.4673 30.9957 9.85743L27.49 7.93123C26.2446 10.1979 25.6454 12.7406 25.6454 15.5078H29.6454ZM30.9957 9.85743C31.8827 8.24297 33.1088 7.00027 34.7017 6.09758L32.7297 2.61749C30.4888 3.88735 28.7329 5.66918 27.49 7.93123L30.9957 9.85743ZM34.6935 6.10222C36.3007 5.20151 38.1617 4.72812 40.3292 4.72812V0.728121C37.5552 0.728121 35.0073 1.34101 32.7379 2.61285L34.6935 6.10222ZM40.3292 4.72812C42.4725 4.72812 44.3091 5.20015 45.8928 6.09758L47.8649 2.61749C45.6146 1.34237 43.0848 0.728121 40.3292 0.728121V4.72812ZM45.901 6.10222C47.5145 7.00649 48.7469 8.24869 49.6308 9.85743L53.1365 7.93123C51.8905 5.66346 50.1196 3.88113 47.8566 2.61285L45.901 6.10222ZM49.639 9.87212C50.5397 11.4793 51.0131 13.3403 51.0131 15.5078H55.0131C55.0131 12.7338 54.4002 10.1859 53.1284 7.91654L49.639 9.87212ZM51.0131 15.5078C51.0131 17.675 50.5398 19.5505 49.6345 21.1836L53.1329 23.123C54.4001 20.837 55.0131 18.2822 55.0131 15.5078H51.0131ZM49.6308 21.1902C48.7438 22.8046 47.5177 24.0473 45.9248 24.95L47.8968 28.4301C50.1377 27.1603 51.8936 25.3784 53.1365 23.1164L49.6308 21.1902ZM45.9248 24.95C44.3436 25.846 42.4971 26.3195 40.3292 26.3195V30.3195C43.1028 30.3195 45.644 29.7067 47.8968 28.4301L45.9248 24.95ZM40.3292 27.3163C42.4677 27.3163 44.4521 26.8089 46.2315 25.7622L44.2034 22.3144C43.0861 22.9717 41.8117 23.3163 40.3292 23.3163V27.3163ZM46.2502 25.751C48.0044 24.6933 49.3831 23.2489 50.3618 21.4461L46.8464 19.5377C46.2063 20.7168 45.3273 21.6367 44.1848 22.3255L46.2502 25.751ZM50.3618 21.4461C51.3427 19.6391 51.8182 17.6456 51.8182 15.5078H47.8182C47.8182 17.0336 47.4842 18.3628 46.8464 19.5377L50.3618 21.4461ZM51.8182 15.5078C51.8182 13.3701 51.3427 11.3765 50.3618 9.56956L46.8464 11.4779C47.4842 12.6529 47.8182 13.9821 47.8182 15.5078H51.8182ZM50.3618 9.56956C49.3808 7.76247 47.9962 6.32353 46.2315 5.28546L44.2034 8.73319C45.3354 9.39908 46.2086 10.3031 46.8464 11.4779L50.3618 9.56956ZM46.2427 5.29208C44.4746 4.23652 42.484 3.73135 40.3292 3.73135V7.73135C41.8379 7.73135 43.1062 8.07817 44.1922 8.72657L46.2427 5.29208ZM40.3292 3.73135C38.174 3.73135 36.1781 4.23659 34.395 5.28546L36.4231 8.73319C37.5367 8.0781 38.8209 7.73135 40.3292 7.73135V3.73135ZM34.3838 5.29208C32.6419 6.33204 31.2736 7.76998 30.2967 9.56956L33.8121 11.4779C34.4539 10.2956 35.322 9.39057 36.4343 8.72657L34.3838 5.29208ZM30.2967 9.56956C29.3157 11.3765 28.8403 13.3701 28.8403 15.5078H32.8403C32.8403 13.9821 33.1742 12.6529 33.8121 11.4779L30.2967 9.56956ZM28.8403 15.5078C28.8403 17.6456 29.3157 19.6391 30.2967 21.4461L33.8121 19.5377C33.1742 18.3628 32.8403 17.0336 32.8403 15.5078H28.8403ZM30.2967 21.4461C31.2753 23.2489 32.6541 24.6933 34.4083 25.751L36.4737 22.3255C35.3312 21.6367 34.4522 20.7168 33.8121 19.5377L30.2967 21.4461ZM34.4269 25.7622C36.2064 26.8089 38.1907 27.3163 40.3292 27.3163V23.3163C38.8468 23.3163 37.5723 22.9717 36.455 22.3144L34.4269 25.7622ZM83.9837 15.5398L82.5216 16.9044L82.5686 16.9548L82.619 17.0019L83.9837 15.5398ZM83.9517 25.5399L82.6905 23.9877L82.6831 23.9937L82.6757 23.9999L83.9517 25.5399ZM69.8621 26.6262L68.8302 28.3395L68.8388 28.3446L69.8621 26.6262ZM65.4211 21.9935L67.1703 21.0239L65.4211 21.9935ZM65.4211 9.08603L67.1658 10.0638L67.1703 10.0557L65.4211 9.08603ZM69.8621 4.45338L70.8939 6.16666L70.8995 6.16326L69.8621 4.45338ZM80.3095 3.36711L79.626 5.24672L79.6368 5.25059L80.3095 3.36711ZM83.9198 5.47576L82.6637 7.03215L82.6914 7.05445L82.7198 7.07576L83.9198 5.47576ZM84.431 6.08279L82.574 6.82558L82.588 6.8606L82.6033 6.89507L84.431 6.08279ZM84.0795 7.84L82.7697 6.32863L82.7437 6.35109L82.7186 6.37442L84.0795 7.84ZM81.907 7.84L80.6084 9.36113L80.6269 9.37691L80.6458 9.39223L81.907 7.84ZM79.351 6.24254L78.5919 8.09288L78.6124 8.10128L78.6331 8.10923L79.351 6.24254ZM71.5235 7.04127L70.4681 5.34235L70.4564 5.34968L71.5235 7.04127ZM68.2007 10.6196L66.4478 9.65669L66.443 9.66541L68.2007 10.6196ZM68.2007 20.428L66.443 21.3822L66.4482 21.3918L66.4536 21.4014L68.2007 20.428ZM71.5235 23.9744L70.4564 25.666L70.4681 25.6733L71.5235 23.9744ZM81.268 23.6868L82.3572 25.3642L83.268 24.7728V23.6868H81.268ZM81.268 17.9999H83.268V15.9999H81.268V17.9999ZM75.6449 17.5845L74.284 19.0501L74.3091 19.0735L74.335 19.0959L75.6449 17.5845ZM75.6449 15.4759L74.335 13.9645L74.3091 13.987L74.284 14.0103L75.6449 15.4759ZM82.8335 17.0605C82.8375 17.0605 82.7846 17.0604 82.7032 17.0265C82.6187 16.9913 82.5562 16.9415 82.5216 16.9044L85.4458 14.1751C84.7398 13.4188 83.8117 13.0605 82.8335 13.0605V17.0605ZM82.619 17.0019C82.5722 16.9582 82.5221 16.8906 82.4896 16.8104C82.4592 16.7352 82.4629 16.6958 82.4629 16.7219H86.4629C86.4629 15.7517 86.1242 14.8019 85.3483 14.0777L82.619 17.0019ZM82.4629 16.7219V24.3578H86.4629V16.7219H82.4629ZM82.4629 24.3578C82.4629 24.3915 82.4576 24.3396 82.4994 24.2429C82.5449 24.1376 82.6171 24.0473 82.6905 23.9877L85.2129 27.0921C86.1007 26.3708 86.4629 25.3606 86.4629 24.3578H82.4629ZM82.6757 23.9999C80.8083 25.5471 78.6537 26.3195 76.1241 26.3195V30.3195C79.5585 30.3195 82.6222 29.2388 85.2278 27.0799L82.6757 23.9999ZM76.1241 26.3195C74.1929 26.3195 72.461 25.8461 70.8854 24.9078L68.8388 28.3446C71.0545 29.664 73.4973 30.3195 76.1241 30.3195V26.3195ZM70.8939 24.9129C69.3271 23.9693 68.091 22.6847 67.1703 21.0239L63.6719 22.9632C64.9238 25.2215 66.6483 27.0253 68.8302 28.3394L70.8939 24.9129ZM67.1703 21.0239C66.2577 19.3775 65.7917 17.5522 65.7917 15.5078H61.7917C61.7917 18.1919 62.412 20.6904 63.6719 22.9632L67.1703 21.0239ZM65.7917 15.5078C65.7917 13.488 66.2562 11.6869 67.1658 10.0638L63.6765 8.10824C62.4136 10.3616 61.7917 12.8418 61.7917 15.5078H65.7917ZM67.1703 10.0557C68.091 8.39487 69.3271 7.11028 70.8939 6.16665L68.8302 2.74012C66.6483 4.05423 64.9238 5.85807 63.6719 8.11636L67.1703 10.0557ZM70.8995 6.16326C72.4734 5.20834 74.2002 4.72812 76.1241 4.72812V0.728121C73.49 0.728121 71.0421 1.39808 68.8246 2.7435L70.8995 6.16326ZM76.1241 4.72812C77.5758 4.72812 78.7281 4.92016 79.626 5.24669L80.993 1.48752C79.548 0.962069 77.91 0.728121 76.1241 0.728121V4.72812ZM79.6368 5.25059C80.5756 5.58588 81.5854 6.16191 82.6637 7.03215L85.1758 3.91936C83.826 2.83005 82.4289 2.00031 80.9822 1.48362L79.6368 5.25059ZM82.7198 7.07576C82.7503 7.09867 82.7397 7.0955 82.7094 7.05956C82.6778 7.02203 82.6217 6.9449 82.574 6.82558L86.2879 5.34001C86.0231 4.67791 85.5586 4.20487 85.1198 3.87576L82.7198 7.07576ZM82.6033 6.89507C82.5733 6.82751 82.5625 6.77878 82.5591 6.76006C82.5558 6.74196 82.5588 6.74836 82.5588 6.78568H86.5588C86.5588 6.31419 86.4876 5.78578 86.2586 5.27052L82.6033 6.89507ZM82.5588 6.78568C82.5588 6.74296 82.5682 6.65115 82.6182 6.54115C82.6684 6.43075 82.7328 6.36055 82.7697 6.32863L85.3894 9.35138C86.151 8.6913 86.5588 7.78663 86.5588 6.78568H82.5588ZM82.7186 6.37442C82.7478 6.34731 82.7999 6.3102 82.87 6.28341C82.9385 6.25721 82.9862 6.25535 82.9932 6.25535V10.2553C83.898 10.2553 84.7536 9.94331 85.4404 9.30559L82.7186 6.37442ZM82.9932 6.25535C83.0485 6.25535 83.104 6.26643 83.1484 6.28341C83.1896 6.29914 83.1956 6.3101 83.1682 6.28778L80.6458 9.39223C81.2885 9.91443 82.0848 10.2553 82.9932 10.2553V6.25535ZM83.2055 6.31887C82.2072 5.46665 81.1627 4.79652 80.069 4.37585L78.6331 8.10923C79.2007 8.32755 79.8602 8.72239 80.6084 9.36113L83.2055 6.31887ZM80.1101 4.3922C78.9532 3.91755 77.5933 3.73135 76.1241 3.73135V7.73135C77.2961 7.73135 78.0875 7.88595 78.5919 8.09288L80.1101 4.3922ZM76.1241 3.73135C74.0913 3.73135 72.192 4.27148 70.4681 5.34239L72.5788 8.74016C73.6665 8.0645 74.8342 7.73135 76.1241 7.73135V3.73135ZM70.4564 5.34968C68.7696 6.41367 67.4325 7.86397 66.4478 9.6567L69.9537 11.5825C70.6303 10.3507 71.5083 9.41544 72.5905 8.73287L70.4564 5.34968ZM66.443 9.66541C65.4678 11.4618 64.9867 13.4212 64.9867 15.5078H68.9867C68.9867 14.0587 69.3148 12.7593 69.9584 11.5738L66.443 9.66541ZM64.9867 15.5078C64.9867 17.6115 65.4659 19.5822 66.443 21.3822L69.9584 19.4738C69.3168 18.2919 68.9867 16.9825 68.9867 15.5078H64.9867ZM66.4536 21.4014C67.4401 23.172 68.7764 24.6063 70.4564 25.666L72.5905 22.2828C71.5015 21.5959 70.6228 20.666 69.9479 19.4546L66.4536 21.4014ZM70.4681 25.6733C72.192 26.7442 74.0913 27.2843 76.1241 27.2843V23.2843C74.8342 23.2843 73.6665 22.9512 72.5788 22.2755L70.4681 25.6733ZM76.1241 27.2843C78.3357 27.2843 80.4242 26.6194 82.3572 25.3642L80.1788 22.0095C78.8316 22.8843 77.4909 23.2843 76.1241 23.2843V27.2843ZM83.268 23.6868V17.9999H79.268V23.6868H83.268ZM81.268 15.9999H76.859V19.9999H81.268V15.9999ZM76.859 15.9999C76.8028 15.9999 76.8015 15.9921 76.8354 16.0037C76.8519 16.0094 76.8727 16.0183 76.8955 16.0313C76.9184 16.0444 76.9384 16.059 76.9548 16.0732L74.335 19.0959C75.075 19.7372 75.9688 19.9999 76.859 19.9999V15.9999ZM77.0058 16.1189C77.0494 16.1594 77.1079 16.2316 77.1506 16.3322C77.1924 16.4307 77.1976 16.5059 77.1976 16.5302H73.1976C73.1976 17.483 73.5572 18.3753 74.284 19.0501L77.0058 16.1189ZM77.1976 16.5302C77.1976 16.5545 77.1924 16.6298 77.1506 16.7282C77.1079 16.8288 77.0494 16.901 77.0058 16.9415L74.284 14.0103C73.5572 14.6851 73.1976 15.5774 73.1976 16.5302H77.1976ZM76.9548 16.9873C76.9384 17.0014 76.9184 17.016 76.8955 17.0291C76.8727 17.0421 76.8519 17.0511 76.8354 17.0567C76.8015 17.0683 76.8028 17.0605 76.859 17.0605V13.0605C75.9688 13.0605 75.075 13.3232 74.335 13.9645L76.9548 16.9873ZM76.859 17.0605H82.8335V13.0605H76.859V17.0605ZM102.046 26.6901L101.06 28.4301L101.068 28.4348L102.046 26.6901ZM97.5731 22.1533L95.8158 23.1083L95.8203 23.1164L97.5731 22.1533ZM97.5731 8.89433L95.8203 7.93123V7.93123L97.5731 8.89433ZM102.046 4.35753L101.068 2.61283L101.06 2.61749L102.046 4.35753ZM115.209 4.35753L114.223 6.0976L114.231 6.10222L115.209 4.35753ZM119.714 8.89433L117.961 9.85743L117.965 9.86479L117.969 9.87212L119.714 8.89433ZM119.714 22.1533L117.965 21.1836L117.961 21.1902L119.714 22.1533ZM115.241 26.6901L116.227 28.4301L115.241 26.6901ZM113.548 24.0383L114.562 25.7622L114.571 25.7567L114.58 25.751L113.548 24.0383ZM116.934 20.4919L115.177 19.5377L116.934 20.4919ZM116.934 10.5237L118.692 9.56956L116.934 10.5237ZM113.548 7.00932L112.522 8.7266L112.534 8.73319L113.548 7.00932ZM103.739 7.00932L102.725 5.28542L102.714 5.29208L103.739 7.00932ZM100.385 10.5237L98.6269 9.56956V9.56956L100.385 10.5237ZM100.385 20.4919L102.142 19.5377L100.385 20.4919ZM103.771 24.0383L102.739 25.751L102.748 25.7567L102.757 25.7622L103.771 24.0383ZM108.659 26.3195C106.492 26.3195 104.631 25.8461 103.024 24.9454L101.068 28.4348C103.338 29.7066 105.886 30.3195 108.659 30.3195V26.3195ZM103.032 24.95C101.439 24.0473 100.213 22.8046 99.3259 21.1902L95.8203 23.1164C97.0631 25.3784 98.819 27.1603 101.06 28.4301L103.032 24.95ZM99.3303 21.1983C98.4413 19.5624 97.9756 17.6817 97.9756 15.5078H93.9756C93.9756 18.2755 94.5749 20.825 95.8158 23.1083L99.3303 21.1983ZM97.9756 15.5078C97.9756 13.3336 98.4414 11.4673 99.3259 9.85743L95.8203 7.93123C94.5748 10.1979 93.9756 12.7406 93.9756 15.5078H97.9756ZM99.3259 9.85743C100.213 8.24297 101.439 7.00027 103.032 6.09758L101.06 2.61749C98.819 3.88735 97.0631 5.66918 95.8203 7.93123L99.3259 9.85743ZM103.024 6.10222C104.631 5.20151 106.492 4.72812 108.659 4.72812V0.728121C105.886 0.728121 103.338 1.34101 101.068 2.61285L103.024 6.10222ZM108.659 4.72812C110.803 4.72812 112.639 5.20015 114.223 6.09758L116.195 2.61749C113.945 1.34237 111.415 0.728121 108.659 0.728121V4.72812ZM114.231 6.10222C115.845 7.00649 117.077 8.24869 117.961 9.85743L121.467 7.93123C120.221 5.66346 118.45 3.88113 116.187 2.61285L114.231 6.10222ZM117.969 9.87212C118.87 11.4793 119.343 13.3403 119.343 15.5078H123.343C123.343 12.7338 122.73 10.1859 121.459 7.91654L117.969 9.87212ZM119.343 15.5078C119.343 17.675 118.87 19.5505 117.965 21.1836L121.463 23.123C122.73 20.837 123.343 18.2822 123.343 15.5078H119.343ZM117.961 21.1902C117.074 22.8046 115.848 24.0473 114.255 24.95L116.227 28.4301C118.468 27.1603 120.224 25.3784 121.467 23.1164L117.961 21.1902ZM114.255 24.95C112.674 25.846 110.827 26.3195 108.659 26.3195V30.3195C111.433 30.3195 113.974 29.7067 116.227 28.4301L114.255 24.95ZM108.659 27.3163C110.798 27.3163 112.782 26.8089 114.562 25.7622L112.534 22.3144C111.416 22.9717 110.142 23.3163 108.659 23.3163V27.3163ZM114.58 25.751C116.335 24.6933 117.713 23.2489 118.692 21.4461L115.177 19.5377C114.537 20.7168 113.658 21.6367 112.515 22.3255L114.58 25.751ZM118.692 21.4461C119.673 19.6391 120.148 17.6456 120.148 15.5078H116.148C116.148 17.0336 115.814 18.3628 115.177 19.5377L118.692 21.4461ZM120.148 15.5078C120.148 13.3701 119.673 11.3765 118.692 9.56956L115.177 11.4779C115.814 12.6529 116.148 13.9821 116.148 15.5078H120.148ZM118.692 9.56956C117.711 7.76247 116.327 6.32353 114.562 5.28546L112.534 8.73319C113.666 9.39908 114.539 10.3031 115.177 11.4779L118.692 9.56956ZM114.573 5.29208C112.805 4.23652 110.814 3.73135 108.659 3.73135V7.73135C110.168 7.73135 111.436 8.07817 112.523 8.72657L114.573 5.29208ZM108.659 3.73135C106.504 3.73135 104.508 4.23659 102.725 5.28546L104.753 8.73319C105.867 8.0781 107.151 7.73135 108.659 7.73135V3.73135ZM102.714 5.29208C100.972 6.33204 99.6038 7.76998 98.6269 9.56956L102.142 11.4779C102.784 10.2956 103.652 9.39057 104.765 8.72657L102.714 5.29208ZM98.6269 9.56956C97.646 11.3765 97.1706 13.3701 97.1706 15.5078H101.171C101.171 13.9821 101.504 12.6529 102.142 11.4779L98.6269 9.56956ZM97.1706 15.5078C97.1706 17.6456 97.646 19.6391 98.6269 21.4461L102.142 19.5377C101.504 18.3628 101.171 17.0336 101.171 15.5078H97.1706ZM98.6269 21.4461C99.6056 23.2489 100.984 24.6933 102.739 25.751L104.804 22.3255C103.661 21.6367 102.782 20.7168 102.142 19.5377L98.6269 21.4461ZM102.757 25.7622C104.537 26.8089 106.521 27.3163 108.659 27.3163V23.3163C107.177 23.3163 105.903 22.9717 104.785 22.3144L102.757 25.7622Z" fill="#FF0000"/>
</svg>
